<?xml version="1.0" encoding="utf-8" ?>
<svg xmlns="http://www.w3.org/2000/svg" xmlns:xlink="http://www.w3.org/1999/xlink" width="400" height="400">
	<path fill="#018BED" transform="scale(0.390625 0.390625)" d="M0 -0L1024 0L1024 1024L829.768 1024L665.799 1024L616.637 1024L402.06 1024L351.866 1024L189.967 1024L-0 1024L0 -0Z"/>
	<path fill="#083189" transform="scale(0.390625 0.390625)" d="M580.874 252.211C588.505 242.025 598.001 233.309 607.171 224.547C646.529 186.938 690.897 155.467 737.5 127.528C759.563 114.301 781.254 101.976 805 91.9784C811.591 89.2036 818.198 86.4732 825.004 84.2619C827.843 83.3392 831.43 82.0494 834.412 81.8235C834.994 81.7794 835.072 81.8071 835.574 81.8651C841.816 90.5557 844.424 104.097 846.815 114.406C860.723 174.37 858.815 237.876 848.859 298.309C841.22 344.671 827.579 390.946 810.352 434.624L801.392 455.791C799.952 459.038 798.762 462.499 797.1 465.628L796.521 465.803L796.215 465.538L796.553 472.929L795.25 473.316C776.7 466.889 758.314 461.543 740.97 452.126L714.712 434.455C691.315 418.394 668.201 404 638.42 407.792C616.757 410.55 598.527 420.749 582.167 435.008C579.909 436.976 577.622 439.04 575.599 441.25C574.273 442.699 573.029 444.934 571.388 445.993L570.81 446.347C574.813 438.41 580.445 430.764 585.431 423.404C597.902 404.999 609.23 385.912 606.233 362.673C605.037 353.399 603.171 344.483 600.032 335.653C596.446 325.566 591.874 316.132 589.75 305.546C587.85 296.08 587.521 286.78 588.069 277.163C588.391 271.521 589.13 265.973 588.686 260.32C588.639 258.389 588.952 256.485 589.2 254.574L580.874 252.211Z"/>
	<path fill="#C9C0C2" transform="scale(0.390625 0.390625)" d="M649.996 278.25C654.122 267.373 660.033 257.264 666.023 247.327C689.301 208.709 719.432 177.198 755.798 150.645C770.864 139.644 785.787 129.996 802.838 122.276C807.128 120.334 813.905 116.979 818.65 118.565C820.617 119.222 821.584 121.22 822.374 123C828.896 137.697 831.035 155.595 832.534 171.5C836.38 212.291 833.303 253.158 826.644 293.484C822.461 318.815 816.94 344.31 809.194 368.812L793.139 412.252C791.113 417.302 789.234 423.06 786.337 427.668C785.102 421.965 782.093 417.112 780.107 411.712C780.557 410.169 780.986 408.664 781.645 407.195C785.328 396.537 789.086 385.746 791.742 374.786C801.563 334.26 805.343 291.532 800.601 250.02C798.998 235.978 796.607 221.687 791.145 208.572C788.225 201.562 783.903 193.721 776.475 190.782C766.689 186.909 752.85 192.765 743.734 196.698C714.514 209.304 689.89 231.691 670.515 256.56C665.742 262.686 660.078 269.818 657.181 277.023L654.6 280.564L649.996 278.25Z"/>
	<path fill="#A3999C" transform="scale(0.390625 0.390625)" d="M657.181 277.023C660.078 269.818 665.742 262.686 670.515 256.56C689.89 231.691 714.514 209.304 743.734 196.698C752.85 192.765 766.689 186.909 776.475 190.782C783.903 193.721 788.225 201.562 791.145 208.572C796.607 221.687 798.998 235.978 800.601 250.02C805.343 291.532 801.563 334.26 791.742 374.786C789.086 385.746 785.328 396.537 781.645 407.195C780.986 408.664 780.557 410.169 780.107 411.712C773.131 398.674 766.797 385.48 758.806 372.997C739.733 343.204 712.732 317.437 683.535 297.75C674.209 291.462 664.417 286.03 654.6 280.564L657.181 277.023Z"/>
	<path fill="#877C7F" transform="scale(0.390625 0.390625)" d="M657.181 277.023L670.5 267.195C686.508 256.25 704.156 246.459 722.434 239.912C725.506 238.811 730.087 236.645 733.342 236.566L708.661 275.731L708.846 275.96L729.591 266.581C739.777 262.382 750.318 259.245 761.073 256.89L733.602 291C748.58 288.39 763.189 288.055 777.576 293.557L752.212 309.125C757.408 310.48 762.986 311.847 767.838 314.175C775.612 317.905 782.066 324.152 787.04 331.089L770.118 336.059C781.503 350.625 785.986 370.14 783.804 388.403L781.619 401.119C781.123 403.253 781.324 405.051 781.645 407.195C780.986 408.664 780.557 410.169 780.107 411.712C773.131 398.674 766.797 385.48 758.806 372.997C739.733 343.204 712.732 317.437 683.535 297.75C674.209 291.462 664.417 286.03 654.6 280.564L657.181 277.023Z"/>
	<path fill="#6FC6F1" transform="scale(0.390625 0.390625)" d="M589.2 254.574L590.149 254.936C595.812 257.045 601.922 258.282 607.68 260.256C622.204 265.233 636.306 271.321 649.996 278.25L654.6 280.564C664.417 286.03 674.209 291.462 683.535 297.75C712.732 317.437 739.733 343.204 758.806 372.997C766.797 385.48 773.131 398.674 780.107 411.712C782.093 417.112 785.102 421.965 786.337 427.668C787.009 431.419 788.826 435.282 789.966 438.953C792.678 447.69 795.004 456.461 796.215 465.538L796.553 472.929L795.25 473.316C776.7 466.889 758.314 461.543 740.97 452.126L714.712 434.455C691.315 418.394 668.201 404 638.42 407.792C616.757 410.55 598.527 420.749 582.167 435.008C579.909 436.976 577.622 439.04 575.599 441.25C574.273 442.699 573.029 444.934 571.388 445.993L570.81 446.347C574.813 438.41 580.445 430.764 585.431 423.404C597.902 404.999 609.23 385.912 606.233 362.673C605.037 353.399 603.171 344.483 600.032 335.653C596.446 325.566 591.874 316.132 589.75 305.546C587.85 296.08 587.521 286.78 588.069 277.163C588.391 271.521 589.13 265.973 588.686 260.32C588.639 258.389 588.952 256.485 589.2 254.574Z"/>
	<path fill="#083189" transform="scale(0.390625 0.390625)" d="M221.265 462.495L220.824 462.767L201.304 420.852C174.557 353.647 159.315 280.818 159.026 208.412C158.928 184.05 160.209 159.588 164.011 135.5C167.067 116.142 170.654 96.9513 178.452 78.8624L181.498 79.6716C197.938 84.1578 213.793 91.1063 229.189 98.3273C291.406 127.509 349.338 168.483 400.627 214.045C409.566 221.986 417.999 230.097 426.144 238.851C429.939 242.93 434.113 247.015 436.891 251.875L424.99 254.652L427.685 262.886C427.306 266.647 428.792 270.647 429.314 274.389C430.725 284.504 430.794 294.688 428.872 304.75C426.582 316.731 421.408 327.555 417.471 339C402.94 381.239 414.755 400.799 437.29 436.422L436.675 436.321C434.497 435.675 432.046 432.814 430.14 431.455C426.078 428.558 421.952 425.873 417.597 423.44C387.846 406.824 352.53 408.78 321.987 422.478C306.379 429.478 292.168 438.732 278.352 448.737C265.964 456.809 253.119 463.749 239.25 468.966C232.633 471.455 225.812 473.257 219.044 475.258C219.52 471.094 220.357 467.249 221.142 463.156L221.265 462.495Z"/>
	<path fill="#C9C0C2" transform="scale(0.390625 0.390625)" d="M231.325 426.152L225.241 411.623L211.38 376.409C193.482 326.39 184.228 274.299 182.662 221.25C182.158 204.19 183.11 186.858 185.119 169.918C186.747 156.18 189.148 141.866 193.747 128.788C195.24 124.543 196.608 119.868 199.75 116.538C202.601 116.264 205.278 117.223 207.938 118.148C247.063 131.759 280.203 161.056 308.189 190.688C332.335 216.254 354.86 244.764 370.241 276.547C368.922 277.449 367.651 278.252 366.217 278.958C351.352 255.197 334.773 233.531 312.98 215.653C300.913 205.754 286.52 196.833 271.137 193.339C264.083 191.737 255.842 190.365 248.744 192.25L247.941 192.458C240.409 194.5 234.573 199.512 230.464 206L230.093 206.576C225.223 214.272 222.19 223.229 220.022 232.023C215.443 250.593 214.579 269.797 214.889 288.85C215.489 325.713 220.074 362.642 228.461 398.541L232.21 414.193L233.236 421.349C232.688 422.968 232.222 424.692 231.325 426.152Z"/>
	<path fill="#A3999C" transform="scale(0.390625 0.390625)" d="M232.21 414.193L228.461 398.541C220.074 362.642 215.489 325.713 214.889 288.85C214.579 269.797 215.443 250.593 220.022 232.023C222.19 223.229 225.223 214.272 230.093 206.576L230.464 206C234.573 199.512 240.409 194.5 247.941 192.458L248.744 192.25C255.842 190.365 264.083 191.737 271.137 193.339C286.52 196.833 300.913 205.754 312.98 215.653C334.773 233.531 351.352 255.197 366.217 278.958L360.734 281.373C320.95 301.807 285.19 332.864 260.255 370.127C249.438 386.291 240.802 403.465 233.236 421.349L232.21 414.193Z"/>
	<path fill="#877C7F" transform="scale(0.390625 0.390625)" d="M232.21 414.193C232.708 412.995 232.896 412.302 232.759 411.005C230.415 388.733 234.21 365.818 240.387 344.516C241.007 342.376 241.759 339.237 240.447 337.25C237.736 333.145 231.983 331.695 227.502 330.502C237.897 322.105 251.782 319.202 264.321 315.72C260.106 312.144 255.839 308.831 251.008 306.118C247.203 303.981 243.131 302.372 239.282 300.307C254.946 293.251 272.88 294.711 289.496 296.042C285.765 291.576 282.395 286.82 278.49 282.478C272.09 275.36 264.972 268.901 258.056 262.3C277.463 263.705 294.901 268.237 313.055 275.049C311.784 271.585 309.713 268.218 307.878 265.016C301.792 254.397 294.581 245.899 285.582 237.606C314.122 245.102 339.283 261.508 360.734 281.373C320.95 301.807 285.19 332.864 260.255 370.127C249.438 386.291 240.802 403.465 233.236 421.349L232.21 414.193Z"/>
	<path fill="#6FC6F1" transform="scale(0.390625 0.390625)" d="M370.241 276.547C376.39 273.1 383.056 270.428 389.562 267.736L424.99 254.652L427.685 262.886C427.306 266.647 428.792 270.647 429.314 274.389C430.725 284.504 430.794 294.688 428.872 304.75C426.582 316.731 421.408 327.555 417.471 339C402.94 381.239 414.755 400.799 437.29 436.422L436.675 436.321C434.497 435.675 432.046 432.814 430.14 431.455C426.078 428.558 421.952 425.873 417.597 423.44C387.846 406.824 352.53 408.78 321.987 422.478C306.379 429.478 292.168 438.732 278.352 448.737C265.964 456.809 253.119 463.749 239.25 468.966C232.633 471.455 225.812 473.257 219.044 475.258C219.52 471.094 220.357 467.249 221.142 463.156L221.265 462.495C222.55 450.513 227.48 437.525 231.325 426.152C232.222 424.692 232.688 422.968 233.236 421.349C240.802 403.465 249.438 386.291 260.255 370.127C285.19 332.864 320.95 301.807 360.734 281.373L366.217 278.958C367.651 278.252 368.922 277.449 370.241 276.547Z"/>
	<path fill="#FEFEFE" transform="scale(0.390625 0.390625)" d="M287.947 684.716L357.992 727.272C363.023 730.465 368.361 732.665 373.659 735.329L407 751.522C438.612 765.883 472.907 782.107 508.25 782.954C519.356 783.22 531.147 781.384 541.956 778.949C553.648 776.316 564.815 772.244 576 768.002C595.777 760.502 615.149 751.641 634.066 742.188L659.705 728.899L725.758 688.427L728.384 711.41C730.399 721.359 730.184 731.904 730.134 742.009C730.112 746.549 729.755 751.298 730.423 755.797C738.937 779.358 747.896 801.982 759.93 824.02C762.39 828.525 764.713 833.601 767.825 837.669C773.503 844.205 778.209 853.433 782.46 861C792.838 879.476 801.084 898.764 808.237 918.686C820.33 952.361 828.475 988.138 829.768 1024L665.799 1024L616.637 1024L402.06 1024L351.866 1024L189.967 1024C192.16 997.779 195.575 972.074 202.17 946.551C209.109 919.701 219.653 893.825 232.864 869.471C239.443 857.344 246.976 844.419 255.717 833.724C259.017 829.089 261.471 822.748 264.014 817.59L281.749 779.155C285.554 770.188 289.508 760.929 291.774 751.44C292.282 745.995 291.391 740.01 290.96 734.553C290.347 726.768 289.881 718.73 290.141 710.925C289.372 707.362 289.289 703.633 289.012 700L287.947 684.716Z"/>
	<path fill="#1DB1E8" transform="scale(0.390625 0.390625)" d="M287.947 684.716L357.992 727.272C357.306 733.077 357.418 738.882 357.223 744.713C356.64 762.166 357.083 779.38 358.234 796.794L358.437 797.424C360.491 839.063 372.84 881.48 391.868 918.45C395.078 924.686 398.933 930.426 402.395 936.494C386.15 924.274 370.854 911.354 356.921 896.501C336.024 874.225 318.814 848.302 305.203 821.036C302.699 814.568 301.317 807.428 299.902 800.655L294.66 771.75L293.069 759.25C292.786 756.66 292.904 753.822 291.774 751.44C292.282 745.995 291.391 740.01 290.96 734.553C290.347 726.768 289.881 718.73 290.141 710.925C289.372 707.362 289.289 703.633 289.012 700L287.947 684.716Z"/>
	<path fill="#0A95A0" transform="scale(0.390625 0.390625)" d="M287.947 684.716L357.992 727.272C357.306 733.077 357.418 738.882 357.223 744.713C356.64 762.166 357.083 779.38 358.234 796.794C349.069 788.388 339.919 780.195 331.388 771.112C314.493 753.126 300.869 733.125 290.141 710.925C289.372 707.362 289.289 703.633 289.012 700L287.947 684.716Z"/>
	<path fill="#1DB1E8" transform="scale(0.390625 0.390625)" d="M659.705 728.899L725.758 688.427L728.384 711.41C730.399 721.359 730.184 731.904 730.134 742.009C730.112 746.549 729.755 751.298 730.423 755.797L730.265 756.462C728.408 764.46 727.828 772.86 726.25 780.956C722.892 798.187 716.994 815.1 709.284 830.861C691.098 867.562 662.205 900.748 629.529 925.25C624.391 929.103 619.242 933.266 613.612 936.371C624.846 922.55 632.721 905.367 638.973 888.809C644.904 873.105 650.163 856.921 653.75 840.504C657.209 824.674 659.083 808.653 660.475 792.53L660.578 791.867C660.271 784.456 660.945 776.88 661.151 769.463C661.518 756.303 661.42 741.959 659.705 728.899Z"/>
	<path fill="#0A95A0" transform="scale(0.390625 0.390625)" d="M659.705 728.899L725.758 688.427L728.384 711.41C716.575 729.949 703.52 746.722 688.312 762.564C679.155 772.103 668.504 781.325 660.578 791.867C660.271 784.456 660.945 776.88 661.151 769.463C661.518 756.303 661.42 741.959 659.705 728.899Z"/>
	<path fill="#6FC6F1" transform="scale(0.390625 0.390625)" d="M291.774 751.44C292.904 753.822 292.786 756.66 293.069 759.25L294.66 771.75L299.902 800.655C301.317 807.428 302.699 814.568 305.203 821.036C304.087 824.155 306.747 831.974 307.555 835.5L314.022 861.976C320.565 884.525 329.683 907.417 339.714 928.65C351.092 952.734 364.846 976.033 380.488 997.584C387.149 1006.76 394.011 1015.98 402.06 1024L351.866 1024C342.652 1015.38 334.428 1004.24 326.891 994.154C299.824 957.948 278.431 917.054 265.266 873.75C261.278 860.632 258.314 847.178 255.717 833.724C259.017 829.089 261.471 822.748 264.014 817.59L281.749 779.155C285.554 770.188 289.508 760.929 291.774 751.44Z"/>
	<path fill="#6FC6F1" transform="scale(0.390625 0.390625)" d="M709.284 830.861C716.994 815.1 722.892 798.187 726.25 780.956C727.828 772.86 728.408 764.46 730.265 756.462L730.423 755.797C738.937 779.358 747.896 801.982 759.93 824.02C762.39 828.525 764.713 833.601 767.825 837.669C760.01 872.368 745.77 904.414 728.309 935.228C717.242 954.757 705.175 973.639 691.765 991.652L665.799 1024L616.637 1024L623.819 1015.78C648.871 985.505 668.467 951.149 683.699 914.989C691.762 895.848 698.779 876.292 704.023 856.184L707.968 840.277C708.654 837.167 709.584 834.065 709.284 830.861Z"/>
	<path fill="#0D2055" transform="scale(0.390625 0.390625)" d="M255.717 833.724C258.314 847.178 261.278 860.632 265.266 873.75C278.431 917.054 299.824 957.948 326.891 994.154C334.428 1004.24 342.652 1015.38 351.866 1024L189.967 1024C192.16 997.779 195.575 972.074 202.17 946.551C209.109 919.701 219.653 893.825 232.864 869.471C239.443 857.344 246.976 844.419 255.717 833.724Z"/>
	<path fill="#0D2055" transform="scale(0.390625 0.390625)" d="M767.825 837.669C773.503 844.205 778.209 853.433 782.46 861C792.838 879.476 801.084 898.764 808.237 918.686C820.33 952.361 828.475 988.138 829.768 1024L665.799 1024L691.765 991.652C705.175 973.639 717.242 954.757 728.309 935.228C745.77 904.414 760.01 872.368 767.825 837.669Z"/>
	<path fill="#C9C0C2" transform="scale(0.390625 0.390625)" d="M357.992 727.272C363.023 730.465 368.361 732.665 373.659 735.329L407 751.522C438.612 765.883 472.907 782.107 508.25 782.954C519.356 783.22 531.147 781.384 541.956 778.949C553.648 776.316 564.815 772.244 576 768.002C595.777 760.502 615.149 751.641 634.066 742.188L659.705 728.899C661.42 741.959 661.518 756.303 661.151 769.463C660.945 776.88 660.271 784.456 660.578 791.867L660.475 792.53L660.119 792.833C652.725 799.23 646.596 806.784 638.853 812.898C627.021 822.24 613.575 829.647 601.442 838.657C593.127 844.831 585.223 851.598 577.464 858.449C550.79 882.003 525.806 910.887 513.946 944.97C512.14 950.159 511.107 955.437 509.897 960.782C509.041 954.171 506.849 947.901 504.485 941.695C498.478 925.933 489.218 912.18 478.753 899.053C462.483 878.644 443.644 860.882 423 844.972L358.437 797.424L358.234 796.794C357.083 779.38 356.64 762.166 357.223 744.713C357.418 738.882 357.306 733.077 357.992 727.272Z"/>
	<path fill="#FEFEFE" transform="scale(0.390625 0.390625)" d="M436.891 251.875C457.632 247.928 477.828 243.916 499.044 243.32C501.912 243.239 505.631 242.759 508.399 243.399C509.185 243.581 509.843 243.473 510.633 243.436C517.191 243.126 523.967 243.739 530.5 244.317L549.808 246.339L580.874 252.211L589.2 254.574C588.952 256.485 588.639 258.389 588.686 260.32C589.13 265.973 588.391 271.521 588.069 277.163C587.521 286.78 587.85 296.08 589.75 305.546C591.874 316.132 596.446 325.566 600.032 335.653C603.171 344.483 605.037 353.399 606.233 362.673C609.23 385.912 597.902 404.999 585.431 423.404C580.445 430.764 574.813 438.41 570.81 446.347L571.388 445.993C573.029 444.934 574.273 442.699 575.599 441.25C577.622 439.04 579.909 436.976 582.167 435.008C598.527 420.749 616.757 410.55 638.42 407.792C668.201 404 691.315 418.394 714.712 434.455L740.97 452.126C758.314 461.543 776.7 466.889 795.25 473.316L796.553 472.929L797.449 473C802.42 480.118 805.337 490.994 807.254 499.433L813.581 490.312C812.288 494.26 810.502 498.308 809.547 502.333C808.077 508.53 807.239 514.714 805.38 520.858C802.521 530.309 798.413 539.035 794.542 548.08C810.759 534.422 822.255 520.407 830.792 500.902C826.921 523.413 819.663 543.751 805.08 561.742L796.697 571.516C794.755 573.577 791.778 575.962 790.366 578.358C799.891 572.985 809.349 567.294 817.913 560.456C809.637 576.643 801.481 592.466 786.791 603.861C780.656 608.62 773.886 612.076 766.841 615.256C781.161 614.295 793.499 612.213 806.827 606.67L806.147 607.189C799.686 612.194 794.375 618.829 788.616 624.618C775.262 638.041 761.563 651.198 745.706 661.65C751.769 660.209 758.5 658.367 764.256 655.968C767.243 654.723 770.103 652.973 773.035 651.568L725.758 688.427L659.705 728.899L634.066 742.188C615.149 751.641 595.777 760.502 576 768.002C564.815 772.244 553.648 776.316 541.956 778.949C531.147 781.384 519.356 783.22 508.25 782.954C472.907 782.107 438.612 765.883 407 751.522L373.659 735.329C368.361 732.665 363.023 730.465 357.992 727.272L287.947 684.716L238.976 648.554C241.662 649.308 244.237 650.415 246.953 651.071C254.685 652.94 262.728 653.524 270.655 653.537C268.974 652.576 267.021 652.103 265.25 651.321C262.286 650.012 259.339 648.441 256.573 646.753C239.524 636.352 226.797 621.248 213.311 606.89C219.334 609.312 224.933 611.733 231.182 613.602C236.97 615.333 243.011 616.375 248.903 617.693C244.364 614.395 239.466 611.757 234.984 608.274C219.286 596.077 209.665 579.495 200.337 562.343C210.241 569.778 220.33 575.829 231.608 580.915C226.975 576.975 222.134 573.367 217.893 568.973C201.299 551.779 194.89 528.942 187.235 506.98C193.542 516.415 200.694 525.701 208.765 533.696C213.805 538.688 219.418 543.064 224.77 547.714C217.357 537.538 212.164 526.624 209.203 514.37L205.257 493.987L216.77 504.907L219.044 475.258C225.812 473.257 232.633 471.455 239.25 468.966C253.119 463.749 265.964 456.809 278.352 448.737C292.168 438.732 306.379 429.478 321.987 422.478C352.53 408.78 387.846 406.824 417.597 423.44C421.952 425.873 426.078 428.558 430.14 431.455C432.046 432.814 434.497 435.675 436.675 436.321L437.29 436.422C414.755 400.799 402.94 381.239 417.471 339C421.408 327.555 426.582 316.731 428.872 304.75C430.794 294.688 430.725 284.504 429.314 274.389C428.792 270.647 427.306 266.647 427.685 262.886L424.99 254.652L436.891 251.875Z"/>
	<path fill="#1DB1E8" transform="scale(0.390625 0.390625)" d="M423.92 660.769L425.25 660.724C424.462 661.363 424.732 661.315 423.898 661.49C408.848 664.652 393.783 667.936 379.125 672.665C362.602 677.997 347.037 684.892 331.739 693.07C331.066 693.353 331.469 693.247 330.5 693.25C337.633 688.053 345.743 683.749 353.66 679.877C375.456 669.217 399.612 662.021 423.92 660.769Z"/>
	<path fill="#1DB1E8" transform="scale(0.390625 0.390625)" d="M400.641 645.73C408.775 645.289 417.16 646.377 425.194 647.624C416.943 648.867 407.778 647.71 399.378 648.145C378.101 649.248 356.84 652.855 336.378 658.799L323.119 663.171C321.852 663.618 318.525 665.209 317.408 664.75C334.232 656.837 353.746 650.616 372.138 647.83C381.645 646.39 391.048 645.991 400.641 645.73Z"/>
	<path fill="#1DB1E8" transform="scale(0.390625 0.390625)" d="M592.224 660.165C595.764 660.112 599.513 661.037 603.009 661.605C618.453 664.11 634.109 668.752 648.619 674.566C654.342 676.859 660.143 679.151 665.576 682.076C673.658 686.427 681.354 692.115 688.669 697.628C684.734 696.85 679.921 692.795 676.235 690.897C668.293 686.805 660.288 682.822 652.012 679.444C639.689 674.416 627.118 670.057 614.33 666.374C607.103 664.293 599.159 662.986 592.224 660.165Z"/>
	<path fill="#1DB1E8" transform="scale(0.390625 0.390625)" d="M351.992 627.211C367.474 625.655 384.369 627.143 399.641 629.84C407.159 631.167 414.804 632.683 421.886 635.611C420.247 635.735 417.966 634.946 416.275 634.644L400.944 632.068C385.04 630.005 368.91 628.83 352.875 629.54C341.062 630.246 329.295 631.412 317.695 633.843C308.333 635.804 299.122 638.712 290 641.567L289.405 641.25C309.133 633.157 330.759 628.56 351.992 627.211Z"/>
	<path fill="#1DB1E8" transform="scale(0.390625 0.390625)" d="M631.207 626.216C648.71 625.547 666.776 627.076 683.967 630.341C691.818 631.833 699.57 633.418 707.114 636.087L674.118 631.17C654.707 628.953 634.637 628.947 615.117 629.574C608.526 629.786 601.795 630.827 595.25 630.8L595.458 630.445C599.105 629.15 603.107 628.746 606.926 628.227C614.979 627.133 623.094 626.606 631.207 626.216Z"/>
	<path fill="#1DB1E8" transform="scale(0.390625 0.390625)" d="M601.713 647.195L617.195 646.947C645.301 647.106 673.452 654.357 698.766 666.483C702.621 668.33 708.835 670.87 711.844 673.918C710.682 673.986 708.752 672.687 707.654 672.131C678.779 658.305 645.979 651.631 614.221 649.066L593.952 648.25C596.308 647.464 599.229 647.461 601.713 647.195Z"/>
	<path fill="#C9C0C2" transform="scale(0.390625 0.390625)" d="M510.343 654.882L510.293 655.38C509.762 661.943 513.935 670.989 518.17 675.86C530.044 689.515 551.496 697.779 569.281 698.651C589.485 699.642 607.078 689.643 623.909 679.684C609.378 694.864 591.754 707.654 569.89 708.007C550.142 708.326 528.258 699.698 514.117 685.92L508.396 680.103C494.679 695.389 475 706.77 454.109 707.915C433.939 709.021 416.107 701.012 401.329 687.604C397.537 684.164 393.779 680.982 391.317 676.409C409.29 690.507 430.61 701.267 454.043 698.432C469.841 696.521 490.037 687.608 499.817 674.773C503.228 670.297 504.723 665.588 505.634 660.119C505.888 658.591 505.919 656.671 506.482 655.265C507.987 655.629 508.919 655.316 510.343 654.882Z"/>
	<path fill="#100E0F" transform="scale(0.390625 0.390625)" d="M460.466 600.817C460.878 600.252 461.219 599.708 461.511 599.071C462.215 597.536 462.947 596.117 463.912 594.723C469.059 587.298 482.684 583.794 491.25 582.182C507.237 579.173 524.113 580.288 539.578 585.316C544.978 587.071 550.232 589.102 554.951 592.321C556.107 594.247 557.105 595.921 557.709 598.109C557.87 598.692 558.077 599.075 558.434 599.56C558.202 605.859 554.371 610.326 549.943 614.389C547.316 616.8 543.644 618.416 541.247 620.892C539.411 622.788 538.24 626.101 536.854 628.382C534.373 632.468 530.713 636.174 527.161 639.322C524.877 641.345 522.376 643.505 519.673 644.958C518.355 645.667 514.084 646.554 513.335 647.514C512.205 648.963 511.256 653.012 510.343 654.882C508.919 655.316 507.987 655.629 506.482 655.265L502.659 646.789C493.734 643.174 486.448 637.004 480.647 629.369C478.714 626.824 477.176 623.742 475.058 621.383C473.272 619.395 470.693 618.058 468.661 616.32C463.654 612.04 461.024 607.444 460.466 600.817Z"/>
	<path fill="#3B3A3B" transform="scale(0.390625 0.390625)" d="M502.114 586.787C506.891 586.172 512.038 586.526 516.846 586.793C526.023 587.302 543.359 589.94 549.75 597.099C550.338 598.58 550.425 599.61 550.084 601.189C549.655 603.184 548.64 605.667 546.75 606.678C545.3 607.453 543.256 607.292 541.703 606.89C538.493 606.06 535.146 603.736 532.056 602.384C528.238 600.713 524.217 599.683 520.264 598.407C509.456 596.254 499.107 595.745 488.654 599.936C485.25 601.301 479.685 604.932 476.123 604.754C473.945 604.645 472.892 603.873 471.518 602.25C471.379 600.757 470.911 598.583 471.949 597.35C474.37 594.475 477.494 593.214 480.861 591.819C487.831 588.932 494.602 587.474 502.114 586.787Z"/>
	<path fill="#2253A9" transform="scale(0.390625 0.390625)" d="M740.97 452.126C758.314 461.543 776.7 466.889 795.25 473.316L796.553 472.929L797.449 473C802.42 480.118 805.337 490.994 807.254 499.433C803.017 504.961 796.645 509.363 791.373 513.926L770.995 531.94C742.996 556.117 716.769 581.968 682.258 596.968C670.783 601.955 658.415 605.528 646.262 608.404C638.743 610.183 630.51 612.82 622.897 613.776L621.925 613.886C605.917 595.449 584.609 579.151 561.946 569.757L561.897 569.685C561.116 567.93 561.803 565.693 562.265 563.911L563.318 564.391C564.653 561.485 566.129 558.766 568.105 556.239C574.477 548.089 585.109 541.605 595.456 540.468L596.25 540.386C604.935 539.421 613.176 541.782 621.592 543.584C631.233 545.649 641.589 546.86 651.332 544.746C659.077 543.067 666.412 540.709 673.468 537.03C691.677 527.534 704.242 510.799 710.229 491.42C712.896 480.229 718.354 470.519 726.089 462.105C728.398 459.593 731.673 457.274 733.412 454.367L740.97 452.126Z"/>
	<path fill="#5776DE" transform="scale(0.390625 0.390625)" d="M710.229 491.42C711.318 492.121 712.198 492.394 712.526 493.75C714.349 501.27 703.688 519.871 698.784 525.826C686.867 540.299 667.656 551.667 648.786 553.436C642.472 554.028 636.443 553.89 630.171 552.953C617.656 551.084 606.294 547.59 593.479 549.846C585.079 551.325 578.583 555.781 571.509 560.162C568.901 561.778 566.372 563.773 563.318 564.391C564.653 561.485 566.129 558.766 568.105 556.239C574.477 548.089 585.109 541.605 595.456 540.468L596.25 540.386C604.935 539.421 613.176 541.782 621.592 543.584C631.233 545.649 641.589 546.86 651.332 544.746C659.077 543.067 666.412 540.709 673.468 537.03C691.677 527.534 704.242 510.799 710.229 491.42Z"/>
	<path fill="#2253A9" transform="scale(0.390625 0.390625)" d="M278.352 448.737C281.961 450.456 287.467 450.58 291.477 451.157C292.537 451.309 294.486 451.256 295.398 451.666L294.498 452.5C297.261 460.662 301.185 468.588 304.601 476.5C305.97 479.671 307.838 483.177 308.71 486.508C318.266 509.699 330.03 530.331 354.354 540.433C362.647 543.877 372.705 546.697 381.75 546.343C392.048 545.94 401.561 542.838 411.338 539.925C416.775 538.305 422.504 536.397 428.25 536.993C432.22 537.405 436.396 539.369 439.915 541.205C443.404 542.752 446.479 545.207 449.606 547.369C450.953 548.301 452.658 549.891 454.295 550.146L454.804 549.888L459.305 572.651C448.873 574.12 440.796 578.266 431.887 583.588C423.066 588.859 414.676 595.095 405.631 599.953C392.413 607.053 378.138 610.214 363.203 608.301C347.171 606.247 332.132 597.8 318.712 589.278C300.562 577.752 283.812 564.527 268.567 549.375C262.457 543.302 256.61 537.459 251.477 530.5C249.161 527.36 246.283 526.139 243.032 524.151L231.351 516.564C226.291 512.926 221.517 508.938 216.77 504.907L219.044 475.258C225.812 473.257 232.633 471.455 239.25 468.966C253.119 463.749 265.964 456.809 278.352 448.737Z"/>
	<path fill="#5776DE" transform="scale(0.390625 0.390625)" d="M439.915 541.205C438.243 542.094 435.839 542.16 433.948 542.456L421.909 544.583C414.449 546.179 407.251 549.003 399.892 551.026C388.576 554.137 377.442 554.514 365.916 552.409C349.92 549.488 331.579 539.56 322.249 525.906C317.725 519.285 313.888 512.698 311.343 505.038C309.845 500.529 306.575 490.815 308.71 486.508C318.266 509.699 330.03 530.331 354.354 540.433C362.647 543.877 372.705 546.697 381.75 546.343C392.048 545.94 401.561 542.838 411.338 539.925C416.775 538.305 422.504 536.397 428.25 536.993C432.22 537.405 436.396 539.369 439.915 541.205Z"/>
	<path fill="#100E0F" transform="scale(0.390625 0.390625)" d="M278.352 448.737C292.168 438.732 306.379 429.478 321.987 422.478C352.53 408.78 387.846 406.824 417.597 423.44C421.952 425.873 426.078 428.558 430.14 431.455C432.046 432.814 434.497 435.675 436.675 436.321L437.29 436.422C456.699 463.317 463.037 498.837 463.226 531.279C463.299 543.771 462.83 555.89 460.857 568.25C460.424 570.964 459.951 573.479 459.921 576.247L459.305 572.651L454.804 549.888L454.295 550.146C452.658 549.891 450.953 548.301 449.606 547.369C446.479 545.207 443.404 542.752 439.915 541.205C436.396 539.369 432.22 537.405 428.25 536.993C422.504 536.397 416.775 538.305 411.338 539.925C401.561 542.838 392.048 545.94 381.75 546.343C372.705 546.697 362.647 543.877 354.354 540.433C330.03 530.331 318.266 509.699 308.71 486.508C307.838 483.177 305.97 479.671 304.601 476.5C301.185 468.588 297.261 460.662 294.498 452.5L295.398 451.666C294.486 451.256 292.537 451.309 291.477 451.157C287.467 450.58 281.961 450.456 278.352 448.737Z"/>
	<path fill="#C5EFF6" transform="scale(0.390625 0.390625)" d="M420.222 528.757C409.194 537.43 394.347 542.563 380.264 542.401C363.273 542.206 345.965 534.017 334.244 521.905C323.041 510.328 317.067 495.755 317.477 479.719C317.607 474.605 318.714 464.507 322.731 461.017C325.003 459.043 328.284 457.792 330.856 456.177C343.917 447.973 355.609 441.686 371.561 442.343L371.471 443.434C364.861 443.627 356.268 446.194 351.19 450.607L350.827 451.033C342.253 456.397 336.526 466.843 334.235 476.419C331.872 486.297 332.843 498.149 338.576 506.75C338.912 507.255 339.298 507.633 339.727 508.055C342.202 513.356 348.199 517.516 352.829 520.872C354.974 522.428 357.188 524.153 359.703 525.061C362.819 526.187 366.396 526.653 369.66 527.226C375.191 526.96 380.305 526.795 385.652 525.206L391.491 522.711L396 520.719C396.721 521.017 397.118 521.269 397.726 521.769C400.326 523.908 401.591 523.492 402.108 527.313L402.834 527.691C407.116 527.404 416.43 525.841 419.755 528.325L420.222 528.757Z"/>
	<path fill="#57F8F5" transform="scale(0.390625 0.390625)" d="M391.491 522.711L396 520.719C396.721 521.017 397.118 521.269 397.726 521.769C400.326 523.908 401.591 523.492 402.108 527.313L402.834 527.691C401.422 527.944 400.182 528.068 398.748 528.072C396.719 528.554 394.573 528.431 392.5 528.636C388.609 529.022 384.757 529.745 380.841 529.881C377.931 529.981 375.379 529.854 373.25 527.847C371.984 527.789 370.808 527.834 369.66 527.226C375.191 526.96 380.305 526.795 385.652 525.206L391.491 522.711Z"/>
	<path fill="#1DB1E8" transform="scale(0.390625 0.390625)" d="M278.352 448.737C292.168 438.732 306.379 429.478 321.987 422.478C352.53 408.78 387.846 406.824 417.597 423.44C421.952 425.873 426.078 428.558 430.14 431.455C432.046 432.814 434.497 435.675 436.675 436.321L437.29 436.422C456.699 463.317 463.037 498.837 463.226 531.279C463.299 543.771 462.83 555.89 460.857 568.25C460.424 570.964 459.951 573.479 459.921 576.247L459.305 572.651L454.804 549.888L453.563 544.71L441.808 503.348C437.916 490.51 434.634 476.721 428.201 464.889C422.45 454.309 413.878 445.618 403.555 439.465C389.407 431.032 372.064 426.653 355.75 430.562C349.244 432.121 343.174 435.06 337.5 438.557C329.683 443.374 322.225 449.306 313.154 451.5L312.25 451.711C307.059 452.953 301.542 452.833 296.314 451.844L295.398 451.666C294.486 451.256 292.537 451.309 291.477 451.157C287.467 450.58 281.961 450.456 278.352 448.737Z"/>
	<path fill="#1DB1E8" transform="scale(0.390625 0.390625)" d="M371.561 442.343C387.307 442.764 402.046 448.649 412.93 460.285C422.65 470.677 430.527 482.647 432.273 497.081C432.918 506.103 432.082 516.397 425.75 523.463C424.106 525.298 422.222 527.314 420.222 528.757L419.755 528.325C416.43 525.841 407.116 527.404 402.834 527.691L402.108 527.313C401.591 523.492 400.326 523.908 397.726 521.769C397.118 521.269 396.721 521.017 396 520.719L391.491 522.711L385.652 525.206C380.305 526.795 375.191 526.96 369.66 527.226C366.396 526.653 362.819 526.187 359.703 525.061C357.188 524.153 354.974 522.428 352.829 520.872C348.199 517.516 342.202 513.356 339.727 508.055C339.298 507.633 338.912 507.255 338.576 506.75C332.843 498.149 331.872 486.297 334.235 476.419C336.526 466.843 342.253 456.397 350.827 451.033L351.19 450.607C356.268 446.194 364.861 443.627 371.471 443.434L371.561 442.343Z"/>
	<path fill="#0C47EF" transform="scale(0.390625 0.390625)" d="M387.217 510.226C389.142 510.75 390.808 511.127 392.417 512.344L386.78 515.625C386.115 515.972 386.373 515.804 385.814 516.3C383.288 517.111 380.806 517.905 378.16 518.233C376.973 518.29 375.847 518.47 374.75 517.922L374.464 513.694C379.481 513.529 382.851 513.003 387.217 510.226Z"/>
	<path fill="#27E2F1" transform="scale(0.390625 0.390625)" d="M390.803 522.477L392.125 521.503C393.493 520.728 391.944 521.983 393.477 520.634L394.125 520.045C395.197 520.137 396.064 519.905 397 519.389C409.709 512.378 415.558 499.708 419.53 486.398C420.631 486.765 421.55 487.703 422.458 488.418C424.42 489.965 426.445 491.467 428.253 493.197C429.405 494.298 430.178 495.602 431.495 496.543L432.273 497.081C432.918 506.103 432.082 516.397 425.75 523.463C424.106 525.298 422.222 527.314 420.222 528.757L419.755 528.325C416.43 525.841 407.116 527.404 402.834 527.691L402.108 527.313C401.591 523.492 400.326 523.908 397.726 521.769C397.118 521.269 396.721 521.017 396 520.719L391.491 522.711L390.803 522.477Z"/>
	<defs>
		<linearGradient id="gradient_0" gradientUnits="userSpaceOnUse" x1="409.8396" y1="468.75708" x2="332.53345" y2="491.51913">
			<stop offset="0" stop-color="#0D28A0"/>
			<stop offset="1" stop-color="#0146FB"/>
		</linearGradient>
	</defs>
	<path fill="url(#gradient_0)" transform="scale(0.390625 0.390625)" d="M371.471 443.434C384.745 444.023 394.059 446.881 403.291 456.917C409.283 463.431 412.012 472.337 411.619 481.06C411.519 483.285 411.165 485.342 410.655 487.5L410.494 488.213C408.335 497.479 400.366 507.414 392.417 512.344C390.808 511.127 389.142 510.75 387.217 510.226L390.166 507.155C391.489 505.556 392.468 503.463 393.492 501.658C397.498 494.594 399.781 488.523 398.989 480.25C398.176 471.757 392.793 464.919 386.376 459.806L386.75 459.065C386.023 456.317 385.258 451.881 382.569 450.359C379.65 448.706 375.214 449.456 372.096 450.219C368.922 450.747 365.975 451.289 362.936 452.37L362.288 452.593L355.499 455.719C351.726 458.862 347.921 461.488 344.663 465.25C339.203 471.556 337.351 480.917 336.619 489.01C336.341 492.075 336.317 495.448 337.227 498.406L339.727 508.055C339.298 507.633 338.912 507.255 338.576 506.75C332.843 498.149 331.872 486.297 334.235 476.419C336.526 466.843 342.253 456.397 350.827 451.033L351.19 450.607C356.268 446.194 364.861 443.627 371.471 443.434Z"/>
	<path fill="#0D2055" transform="scale(0.390625 0.390625)" d="M372.096 450.219C375.214 449.456 379.65 448.706 382.569 450.359C385.258 451.881 386.023 456.317 386.75 459.065L386.376 459.806C392.793 464.919 398.176 471.757 398.989 480.25C399.781 488.523 397.498 494.594 393.492 501.658C392.468 503.463 391.489 505.556 390.166 507.155L387.217 510.226C382.851 513.003 379.481 513.529 374.464 513.694C369.048 512.537 364.785 509.54 361.491 505.128C355.826 497.54 355.703 490.591 356.976 481.571C355.85 481.063 354.78 480.487 353.889 479.611C351.925 477.684 350.634 474.106 350.555 471.391C350.506 469.717 350.291 468.821 351.5 467.563C355.329 466.651 357.663 466.392 361.521 467.199L361.143 466.067C361.389 464.106 362.295 463.121 363.328 461.5C364.509 459.648 365.824 457.808 367.389 456.25C368.761 454.885 372.848 452.411 373.488 450.75L372.096 450.219Z"/>
	<path fill="#FEFEFE" transform="scale(0.390625 0.390625)" d="M383.133 498.376C384.829 498.372 385.348 498.285 386.867 499.133C387.618 500.276 388.007 501.381 388.083 502.75C388.213 505.118 387.523 505.489 386.012 507.119C385.073 507.011 384.225 506.915 383.373 506.458C382.296 505.88 381.278 504.703 381.095 503.484C380.759 501.247 381.856 500.033 383.133 498.376Z"/>
	<path fill="#0C47EF" transform="scale(0.390625 0.390625)" d="M372.096 450.219C375.214 449.456 379.65 448.706 382.569 450.359C385.258 451.881 386.023 456.317 386.75 459.065L386.376 459.806C382.132 457.866 378.273 456.365 373.59 458.161C371.223 459.068 368.911 460.223 366.881 461.75C365.024 463.148 363.205 465.01 361.143 466.067C361.389 464.106 362.295 463.121 363.328 461.5C364.509 459.648 365.824 457.808 367.389 456.25C368.761 454.885 372.848 452.411 373.488 450.75L372.096 450.219Z"/>
	<path fill="#FEFEFE" transform="scale(0.390625 0.390625)" d="M356.976 481.571C355.85 481.063 354.78 480.487 353.889 479.611C351.925 477.684 350.634 474.106 350.555 471.391C350.506 469.717 350.291 468.821 351.5 467.563C355.329 466.651 357.663 466.392 361.521 467.199C363.904 468.206 366.885 469.616 368.096 472.095C368.9 473.742 368.9 476.497 368.216 478.199C367.671 479.556 366.847 480.452 365.5 481.03C362.922 482.138 359.682 481.996 356.976 481.571Z"/>
	<path fill="#100E0F" transform="scale(0.390625 0.390625)" d="M570.81 446.347L571.388 445.993C573.029 444.934 574.273 442.699 575.599 441.25C577.622 439.04 579.909 436.976 582.167 435.008C598.527 420.749 616.757 410.55 638.42 407.792C668.201 404 691.315 418.394 714.712 434.455L740.97 452.126L733.412 454.367C731.673 457.274 728.398 459.593 726.089 462.105C718.354 470.519 712.896 480.229 710.229 491.42C704.242 510.799 691.677 527.534 673.468 537.03C666.412 540.709 659.077 543.067 651.332 544.746C641.589 546.86 631.233 545.649 621.592 543.584C613.176 541.782 604.935 539.421 596.25 540.386L595.456 540.468C585.109 541.605 574.477 548.089 568.105 556.239C566.129 558.766 564.653 561.485 563.318 564.391L562.265 563.911C561.803 565.693 561.116 567.93 561.897 569.685L561.946 569.757C560.348 575.993 560.001 583.356 559.484 589.792C559.231 592.943 559.284 596.526 558.434 599.56C558.077 599.075 557.87 598.692 557.709 598.109C557.105 595.921 556.107 594.247 554.951 592.321L553.607 584.989C550.336 560.859 550.736 536.198 552.967 512C554.366 496.832 556.246 482.056 560.919 467.5C563.195 460.413 566.234 452.3 570.81 446.347Z"/>
	<path fill="#018BED" transform="scale(0.390625 0.390625)" d="M582.063 513.368L578.131 507.656C583.085 490.125 591.553 472.957 603.365 459.041C607.939 453.652 613.349 448.284 619.432 444.61C631.619 437.249 644.605 434.27 658.601 437.836C673.578 441.654 689.565 450.52 697.65 464.078L683.668 464.535C680.131 464.58 676.267 464.258 672.779 464.75L672.274 464.58L665.808 453.725C661.607 447.659 654.55 442.123 647.142 440.875C638.189 439.366 627.863 443.118 620.698 448.451C611.843 455.043 606.296 464.757 604.846 475.668C603.843 483.216 607.45 490.461 610.864 496.984L607.205 494.231L604.158 485.659C597.892 491.597 590.949 497.961 586.226 505.239C584.556 507.812 583.477 510.663 582.063 513.368Z"/>
	<path fill="#083189" transform="scale(0.390625 0.390625)" d="M610.864 496.984C607.45 490.461 603.843 483.216 604.846 475.668C606.296 464.757 611.843 455.043 620.698 448.451C627.863 443.118 638.189 439.366 647.142 440.875C654.55 442.123 661.607 447.659 665.808 453.725L672.274 464.58C668.765 464.501 664.493 463.953 661.08 464.594C659.356 462.579 657.761 460.533 655.48 459.127L654.873 458.745C650.403 456.035 644.74 455.558 639.756 456.956C633.514 458.706 627.288 463.988 624.359 469.772C620.723 476.955 620.293 484.36 622.918 491.94C624 495.063 625.406 497.773 627.559 500.289C625.556 502.019 623.25 504.069 623.16 506.942C623.122 508.16 623.739 509.403 624.229 510.488C618.354 507.116 614.694 502.46 610.864 496.984Z"/>
	<path fill="#0D2055" transform="scale(0.390625 0.390625)" d="M627.559 500.289C625.406 497.773 624 495.063 622.918 491.94C620.293 484.36 620.723 476.955 624.359 469.772C627.288 463.988 633.514 458.706 639.756 456.956C644.74 455.558 650.403 456.035 654.873 458.745L655.48 459.127C657.761 460.533 659.356 462.579 661.08 464.594C666.272 474.106 669.086 484.161 665.975 494.9C663.569 503.212 657.449 510.886 649.75 514.915C644.17 517.835 638.557 518.141 632.635 516.014C629.808 514.999 626.971 513.487 624.939 511.25L625.384 510.75L624.229 510.488C623.739 509.403 623.122 508.16 623.16 506.942C623.25 504.069 625.556 502.019 627.559 500.289Z"/>
	<path fill="#FEFEFE" transform="scale(0.390625 0.390625)" d="M627.559 500.289C628.818 501.108 629.885 501.73 630.389 503.25C631.054 505.255 630.457 507.697 629.411 509.426C628.047 510.45 627.013 510.561 625.384 510.75L624.229 510.488C623.739 509.403 623.122 508.16 623.16 506.942C623.25 504.069 625.556 502.019 627.559 500.289Z"/>
	<path fill="#FEFEFE" transform="scale(0.390625 0.390625)" d="M651.112 467.025C652.239 466.955 653.364 466.905 654.475 467.157C657 467.731 658.989 469.246 660.25 471.511C661.256 473.317 661.84 475.637 661.196 477.657C660.109 481.062 657.47 482.564 654.426 483.958C653.051 484.036 651.431 484.224 650.088 483.883C648.19 483.4 646.235 481.328 645.285 479.693C644.277 477.957 643.735 475.757 644.277 473.79L644.443 473.25L644.799 472.128C645.936 469.317 648.495 468.09 651.112 467.025Z"/>
	<path fill="#27E2F1" transform="scale(0.390625 0.390625)" d="M672.779 464.75C676.267 464.258 680.131 464.58 683.668 464.535L697.65 464.078C698.481 465.911 699.403 467.742 700.008 469.663C703.384 485.345 701.813 499.482 693.012 513.064C683.835 527.227 669.192 537.75 652.613 541.264C635.238 544.947 616.099 541.069 601.317 531.272C593.855 526.327 587.606 520.375 582.063 513.368C583.477 510.663 584.556 507.812 586.226 505.239C590.949 497.961 597.892 491.597 604.158 485.659L607.205 494.231L610.864 496.984C614.694 502.46 618.354 507.116 624.229 510.488L625.384 510.75L624.939 511.25C626.971 513.487 629.808 514.999 632.635 516.014C638.557 518.141 644.17 517.835 649.75 514.915C657.449 510.886 663.569 503.212 665.975 494.9C669.086 484.161 666.272 474.106 661.08 464.594C664.493 463.953 668.765 464.501 672.274 464.58L672.779 464.75Z"/>
	<path fill="#1DB1E8" transform="scale(0.390625 0.390625)" d="M672.779 464.75C676.267 464.258 680.131 464.58 683.668 464.535L697.65 464.078C698.481 465.911 699.403 467.742 700.008 469.663C691.667 471.961 684.348 473.037 675.73 473.513C676.616 479.321 677.136 485.209 675.75 490.974C673.372 500.865 667.16 510.282 659 516.417L658.346 516.915C654.97 519.455 650.953 521.393 646.75 522.002L645.891 522.133C637.498 523.28 628.976 519.979 622.405 514.907C615.193 509.341 610.847 502.509 607.205 494.231L610.864 496.984C614.694 502.46 618.354 507.116 624.229 510.488L625.384 510.75L624.939 511.25C626.971 513.487 629.808 514.999 632.635 516.014C638.557 518.141 644.17 517.835 649.75 514.915C657.449 510.886 663.569 503.212 665.975 494.9C669.086 484.161 666.272 474.106 661.08 464.594C664.493 463.953 668.765 464.501 672.274 464.58L672.779 464.75Z"/>
	<path fill="#1DB1E8" transform="scale(0.390625 0.390625)" d="M570.81 446.347L571.388 445.993C573.029 444.934 574.273 442.699 575.599 441.25C577.622 439.04 579.909 436.976 582.167 435.008C598.527 420.749 616.757 410.55 638.42 407.792C668.201 404 691.315 418.394 714.712 434.455L740.97 452.126L733.412 454.367C727.908 454.582 722.818 454.422 717.415 453.199C701.542 449.607 687.867 440.365 673.022 434.217C659.907 428.786 646.269 426.565 632.388 430.31C620.209 433.595 610.039 440.918 601.573 450.106C573.414 480.67 566.778 524.22 562.265 563.911C561.803 565.693 561.116 567.93 561.897 569.685L561.946 569.757C560.348 575.993 560.001 583.356 559.484 589.792C559.231 592.943 559.284 596.526 558.434 599.56C558.077 599.075 557.87 598.692 557.709 598.109C557.105 595.921 556.107 594.247 554.951 592.321L553.607 584.989C550.336 560.859 550.736 536.198 552.967 512C554.366 496.832 556.246 482.056 560.919 467.5C563.195 460.413 566.234 452.3 570.81 446.347Z"/>
	<path fill="#2253A9" transform="scale(0.390625 0.390625)" d="M436.891 251.875C457.632 247.928 477.828 243.916 499.044 243.32C501.912 243.239 505.631 242.759 508.399 243.399C509.185 243.581 509.843 243.473 510.633 243.436C517.191 243.126 523.967 243.739 530.5 244.317L549.808 246.339L580.874 252.211L589.2 254.574C588.952 256.485 588.639 258.389 588.686 260.32C589.13 265.973 588.391 271.521 588.069 277.163C587.521 286.78 587.85 296.08 589.75 305.546C591.874 316.132 596.446 325.566 600.032 335.653C603.171 344.483 605.037 353.399 606.233 362.673C609.23 385.912 597.902 404.999 585.431 423.404C580.445 430.764 574.813 438.41 570.81 446.347C566.234 452.3 563.195 460.413 560.919 467.5C556.246 482.056 554.366 496.832 552.967 512C550.736 536.198 550.336 560.859 553.607 584.989L554.951 592.321C550.232 589.102 544.978 587.071 539.578 585.316C524.113 580.288 507.237 579.173 491.25 582.182C482.684 583.794 469.059 587.298 463.912 594.723C462.947 596.117 462.215 597.536 461.511 599.071C461.219 599.708 460.878 600.252 460.466 600.817L459.921 576.247C459.951 573.479 460.424 570.964 460.857 568.25C462.83 555.89 463.299 543.771 463.226 531.279C463.037 498.837 456.699 463.317 437.29 436.422C414.755 400.799 402.94 381.239 417.471 339C421.408 327.555 426.582 316.731 428.872 304.75C430.794 294.688 430.725 284.504 429.314 274.389C428.792 270.647 427.306 266.647 427.685 262.886L424.99 254.652L436.891 251.875Z"/>
	<path fill="#FEFEFE" transform="scale(0.390625 0.390625)" d="M436.891 251.875C457.632 247.928 477.828 243.916 499.044 243.32C501.912 243.239 505.631 242.759 508.399 243.399C509.185 243.581 509.843 243.473 510.633 243.436C517.191 243.126 523.967 243.739 530.5 244.317L549.808 246.339L580.874 252.211L589.2 254.574C588.952 256.485 588.639 258.389 588.686 260.32C584.389 281.374 573.425 300.137 566.94 320.516C563.379 331.705 560.894 343.736 563.311 355.437C564.798 362.638 568.25 369.48 572.014 375.74C555.938 366.222 541.775 353.739 531.928 337.697C524.653 325.847 520.053 312.954 516.602 299.556C513.693 288.262 511.648 276.607 510.513 265L509.589 253.51C509.459 251.565 509.592 249.261 508.716 247.5C507.692 289.387 498.688 331.411 467.377 361.457C461.242 367.343 454.142 371.894 446.728 375.965C447.081 373.978 450.914 370.25 452.155 368.154C454.245 364.623 455.635 360.732 456.805 356.815C458.092 352.504 457.962 347.539 457.688 343.092C456.384 321.92 445.408 300.716 436.361 281.935C433.363 275.712 430.057 269.366 427.685 262.886L424.99 254.652L436.891 251.875Z"/>
</svg>
